<svg width="86" height="32" viewBox="0 0 86 32" fill="none" xmlns="http://www.w3.org/2000/svg">
<path d="M82.8592 2.44456L80.4117 0L78.0005 2.44456L80.4117 4.92591L82.8592 2.44456Z" fill="white"/>
<path d="M80.6997 9.08579L77.7486 15.2159L81.7649 18.7011C80.0335 19.3168 78.4704 19.5172 77.2808 19.4849C75.2655 19.4119 73.79 17.916 71.5582 14.486C69.7587 11.713 68.2113 10.4358 66.4474 10.4358C64.4678 10.4358 62.5607 12.3699 60.2214 15.7632C58.4938 18.2806 57.1265 19.4487 55.5784 19.4487C54.1748 19.4487 53.0233 18.5362 53.0233 15.1068V0H52.6637L49.2085 4.2328L49.7846 16.8209C50.0723 22.9871 51.9081 25.4685 55.1831 25.4685C57.3223 25.4685 58.8666 24.1761 59.8661 22.6872L67.3838 27.2193L70.8746 21.126H71.0547C72.3864 24.4101 74.2578 25.5046 76.3813 25.5046C77.965 25.5046 79.6564 25.2129 81.312 24.7747C82.7519 20.0676 83.2197 17.696 83.2197 15.434C83.2197 13.3541 82.2121 10.9095 81.0606 9.08515H80.7009L80.6997 9.08579ZM61.0395 16.6731C61.7751 15.8386 62.5657 15.4829 63.3882 15.5076C65.4948 15.5076 67.7666 18.1944 69.6317 21.6028L61.0389 16.6731H61.0395Z" fill="white"/>
<path d="M32.9403 28.9307L30.4934 26.417L27.7219 29.2268L30.4934 31.9999L32.9403 29.5185L35.3878 31.9999L38.1594 29.2268L35.3878 26.417L32.9403 28.9307Z" fill="white"/>
<path d="M5.55165 3.50289L7.99917 5.98423L10.7707 3.21119L7.99917 0.401367L5.54978 2.91695L3.06849 0.401367L0.333252 3.21119L3.06849 6.02038L5.55165 3.50289Z" fill="white"/>
<path d="M46.5451 4.30592L43.7736 1.49609L41.0383 4.30592L43.7736 7.1151L46.5451 4.30592Z" fill="white"/>
<path d="M35.5317 6.27562L37.2236 4.15953L37.1154 3.83105L17.7167 10.4716L16.061 12.6245L16.133 12.953L35.5317 6.27562Z" fill="white"/>
<path d="M44.1334 8.79397L41.1823 14.9241L45.1779 18.3915C43.0957 19.0599 40.7401 19.4486 38.591 19.4486C35.244 19.4486 35.1358 18.0985 35.1358 14.5956V13.0268H34.0562L32.779 17.7441C27.8827 19.0047 22.9708 19.4854 19.2279 19.4854C13.7212 19.4854 12.2456 18.5367 12.2456 14.1948V4.88965H11.886L8.53903 8.28287L8.56906 9.62912L7.27931 10.3267C2.96036 12.6615 1.2334 14.3768 1.2334 17.9159C1.2334 21.1271 3.2487 22.6592 5.73249 22.6592C6.66822 22.6592 7.53201 22.5133 8.28759 22.1849L9.13825 19.6471C10.2335 23.8399 13.4434 25.5052 18.6531 25.5052C22.2884 25.5052 27.0027 24.994 31.3579 23.8995L32.4018 20.6883H32.6533C33.0317 23.9135 34.4734 25.4069 37.9086 25.4684C40.428 25.5052 42.6591 25.1399 44.747 24.4829C46.1868 19.9584 46.6547 17.6965 46.6547 15.5069C46.6547 13.0623 45.647 10.6539 44.4955 8.79334H44.1359L44.1334 8.79397ZM5.73187 16.6388C4.22008 16.6388 3.35629 16.3832 3.35629 15.7998C3.35629 15.2526 3.89608 14.9241 5.40787 14.3039L8.64349 12.9532L8.71917 16.3471C8.71917 16.3731 8.72105 16.3984 8.72167 16.4238C7.8435 16.5646 6.75766 16.6388 5.73249 16.6388H5.73187Z" fill="white"/>
<path d="M80.4283 5.99599L77.9645 3.46582L75.1936 6.31179L77.9645 9.08546L80.4283 6.61997L82.8595 9.08546L85.6667 6.31179L82.8595 3.46582L80.4283 5.99599Z" fill="white"/>
</svg>
